<svg id="Layer_1" data-name="Layer 1" xmlns="http://www.w3.org/2000/svg" viewBox="0 0 10.75 14.19"><defs><style>.cls-1{fill:#8ca8c9;stroke:#fff;stroke-miterlimit:10;stroke-width:0.75px;}.cls-2{fill:#fff;}.cls-3{fill:none;}</style></defs><path class="cls-1" d="M22,14a5,5,0,1,0-7,4.59l2,3.47L19,18.56A5,5,0,0,0,22,14Z" transform="translate(-11.63 -8.63)"/><path class="cls-2" d="M15.91,10.63a.6.6,0,0,1,.49.21.13.13,0,0,0,.17,0,.47.47,0,0,1,.37,0,.61.61,0,0,1,.24.18.1.1,0,0,0,.11,0,.49.49,0,0,1,.57.26.1.1,0,0,0,.1.07.43.43,0,0,1,.46.34.19.19,0,0,0,.16.14.42.42,0,0,1,.26.55.44.44,0,0,1-.17.23.12.12,0,0,0,0,.16,2,2,0,0,1,.21.87,7,7,0,0,1-.11,1.21c0,.33-.08.65-.13,1a9.67,9.67,0,0,1-.28,1.32,1.23,1.23,0,0,1-.6.8,1.19,1.19,0,0,1-1.1,0,1.21,1.21,0,0,1-.53-1.66,2.18,2.18,0,0,1,.22-.31,1.28,1.28,0,0,0,.22-.49,2.94,2.94,0,0,0,.08-.72,1.06,1.06,0,0,0-.29-.74,2.26,2.26,0,0,0-.31-.23,1.43,1.43,0,0,1-.32-.28.81.81,0,0,1-.14-.69,2.44,2.44,0,0,1,.14-.46s0-.07,0-.09a.89.89,0,0,1-.41-.82,1.7,1.7,0,0,1,0-.39A.59.59,0,0,1,15.91,10.63Zm2.69,3.19a2,2,0,0,0,0-.42,1.47,1.47,0,0,0-.53-.91,2.66,2.66,0,0,0-.45-.29,1.79,1.79,0,0,0-.91-.24.69.69,0,0,0-.55.26,1.75,1.75,0,0,0-.35.8.53.53,0,0,0,.16.48,2,2,0,0,0,.33.25,1.11,1.11,0,0,1,.52.68,1.92,1.92,0,0,1,.05.79,1.77,1.77,0,0,1-.35,1l-.12.16a.94.94,0,0,0,.17,1.27,1,1,0,0,0,.91.19.84.84,0,0,0,.58-.52,6.33,6.33,0,0,0,.27-1.06q.12-.74.21-1.47A6.28,6.28,0,0,0,18.6,13.82Zm-3.09-2.35a.93.93,0,0,0,.09.46c.05.12.14.19.23.17a.61.61,0,0,0,.43-.32.89.89,0,0,0,0-.66c-.06-.22-.27-.26-.47-.23a.3.3,0,0,0-.24.21A.92.92,0,0,0,15.51,11.47Zm1-.08a.3.3,0,0,0,.19.31.28.28,0,0,0,.32-.12.36.36,0,0,0,0-.4.29.29,0,0,0-.3-.1A.3.3,0,0,0,16.49,11.39Zm.93-.09a.26.26,0,0,0-.26.28.28.28,0,0,0,.26.31.3.3,0,0,0,.27-.3A.28.28,0,0,0,17.42,11.3Zm.56.86a.27.27,0,0,0,0-.53.27.27,0,0,0,0,.53Zm.71.16a.23.23,0,0,0-.24-.24.23.23,0,0,0-.22.24.23.23,0,0,0,.23.23A.22.22,0,0,0,18.69,12.32Z" transform="translate(-11.63 -8.63)"/><path class="cls-3" d="M18.6,13.82a6.28,6.28,0,0,1-.09,1q-.09.74-.21,1.47A6.33,6.33,0,0,1,18,17.34a.84.84,0,0,1-.58.52,1,1,0,0,1-.91-.19.94.94,0,0,1-.17-1.27l.12-.16a1.77,1.77,0,0,0,.35-1,1.92,1.92,0,0,0-.05-.79,1.11,1.11,0,0,0-.52-.68,2,2,0,0,1-.33-.25.53.53,0,0,1-.16-.48,1.75,1.75,0,0,1,.35-.8.69.69,0,0,1,.55-.26,1.79,1.79,0,0,1,.91.24,2.66,2.66,0,0,1,.45.29,1.47,1.47,0,0,1,.53.91A2,2,0,0,1,18.6,13.82Zm-.63,3v-.14a.65.65,0,0,0-.85-.58,1.21,1.21,0,0,0-.63.46.75.75,0,0,0,0,.81.82.82,0,0,0,.93.38.7.7,0,0,0,.48-.42A1.25,1.25,0,0,0,18,16.78Z" transform="translate(-11.63 -8.63)"/><path class="cls-3" d="M15.51,11.47a.92.92,0,0,1,.05-.37.3.3,0,0,1,.24-.21c.2,0,.41,0,.47.23a.89.89,0,0,1,0,.66.61.61,0,0,1-.43.32c-.09,0-.18,0-.23-.17A.93.93,0,0,1,15.51,11.47Z" transform="translate(-11.63 -8.63)"/><path class="cls-3" d="M16.49,11.39a.3.3,0,0,1,.19-.31.29.29,0,0,1,.3.1.36.36,0,0,1,0,.4.28.28,0,0,1-.32.12A.3.3,0,0,1,16.49,11.39Z" transform="translate(-11.63 -8.63)"/><path class="cls-3" d="M17.42,11.3a.28.28,0,0,1,.27.29.3.3,0,0,1-.27.3.28.28,0,0,1-.26-.31A.26.26,0,0,1,17.42,11.3Z" transform="translate(-11.63 -8.63)"/><path class="cls-3" d="M18,12.16a.27.27,0,0,1,0-.53.27.27,0,0,1,0,.53Z" transform="translate(-11.63 -8.63)"/><path class="cls-3" d="M18.69,12.32a.22.22,0,0,1-.23.23.23.23,0,0,1-.23-.23.23.23,0,0,1,.22-.24A.23.23,0,0,1,18.69,12.32Z" transform="translate(-11.63 -8.63)"/><path class="cls-2" d="M18,16.78a1.25,1.25,0,0,1-.1.51.7.7,0,0,1-.48.42.82.82,0,0,1-.93-.38.75.75,0,0,1,0-.81,1.21,1.21,0,0,1,.63-.46.65.65,0,0,1,.85.58Z" transform="translate(-11.63 -8.63)"/></svg>